<?xml version="1.0" encoding="UTF-8" standalone="no"?><!-- Generator: Gravit.io --><svg xmlns="http://www.w3.org/2000/svg" xmlns:xlink="http://www.w3.org/1999/xlink" style="isolation:isolate" viewBox="0 0 127 32" width="127pt" height="32pt"><defs><clipPath id="_clipPath_Hx0tTuBXw6fCip6LRfyXLO7VTzr73tTt"><rect width="127" height="32"/></clipPath></defs><g clip-path="url(#_clipPath_Hx0tTuBXw6fCip6LRfyXLO7VTzr73tTt)"><path d=" M 41.609 10.424 L 41.609 10.424 Q 43.889 10.424 45.231 12.384 L 45.231 12.384 L 45.231 12.384 Q 46.573 14.345 46.573 17.86 L 46.573 17.86 L 46.573 17.86 Q 46.573 20.077 45.94 21.767 L 45.94 21.767 L 45.94 21.767 Q 45.307 23.457 44.117 24.39 L 44.117 24.39 L 44.117 24.39 Q 42.926 25.323 41.331 25.323 L 41.331 25.323 L 41.331 25.323 Q 39.228 25.323 37.785 23.43 L 37.785 23.43 L 37.557 24.998 L 35.505 24.998 L 35.505 5.016 L 37.835 4.718 L 37.835 12.533 L 37.835 12.533 Q 39.279 10.424 41.609 10.424 L 41.609 10.424 Z  M 40.773 23.349 L 40.773 23.349 Q 42.318 23.349 43.192 22.01 L 43.192 22.01 L 43.192 22.01 Q 44.066 20.672 44.066 17.86 L 44.066 17.86 L 44.066 17.86 Q 44.066 14.967 43.256 13.682 L 43.256 13.682 L 43.256 13.682 Q 42.445 12.398 40.951 12.398 L 40.951 12.398 L 40.951 12.398 Q 39.178 12.398 37.835 14.615 L 37.835 14.615 L 37.835 21.429 L 37.835 21.429 Q 38.367 22.321 39.14 22.835 L 39.14 22.835 L 39.14 22.835 Q 39.912 23.349 40.773 23.349 L 40.773 23.349 L 40.773 23.349 Z  M 50.55 17.25 L 50.55 10.748 L 52.88 10.748 L 52.88 24.998 L 50.55 24.998 L 50.55 17.25 Z  M 51.69 3.907 L 51.69 3.907 Q 52.424 3.907 52.88 4.394 L 52.88 4.394 L 52.88 4.394 Q 53.336 4.881 53.336 5.611 L 53.336 5.611 L 53.336 5.611 Q 53.336 6.341 52.88 6.814 L 52.88 6.814 L 52.88 6.814 Q 52.424 7.287 51.69 7.287 L 51.69 7.287 L 51.69 7.287 Q 50.981 7.287 50.525 6.814 L 50.525 6.814 L 50.525 6.814 Q 50.069 6.341 50.069 5.611 L 50.069 5.611 L 50.069 5.611 Q 50.069 4.881 50.525 4.394 L 50.525 4.394 L 50.525 4.394 Q 50.981 3.907 51.69 3.907 L 51.69 3.907 L 51.69 3.907 Z  M 61.314 10.424 L 61.314 10.424 Q 62.682 10.424 63.771 10.829 L 63.771 10.829 L 63.771 10.829 Q 64.86 11.235 65.848 12.046 L 65.848 12.046 L 64.86 13.615 L 64.86 13.615 Q 63.949 12.993 63.125 12.695 L 63.125 12.695 L 63.125 12.695 Q 62.302 12.398 61.39 12.398 L 61.39 12.398 L 61.39 12.398 Q 60.251 12.398 59.592 12.898 L 59.592 12.898 L 59.592 12.898 Q 58.934 13.398 58.934 14.264 L 58.934 14.264 L 58.934 14.264 Q 58.934 15.129 59.554 15.616 L 59.554 15.616 L 59.554 15.616 Q 60.175 16.102 61.796 16.562 L 61.796 16.562 L 61.796 16.562 Q 64.024 17.157 65.126 18.184 L 65.126 18.184 L 65.126 18.184 Q 66.228 19.212 66.228 20.996 L 66.228 20.996 L 66.228 20.996 Q 66.228 23.106 64.696 24.214 L 64.696 24.214 L 64.696 24.214 Q 63.163 25.323 60.96 25.323 L 60.96 25.323 L 60.96 25.323 Q 57.92 25.323 55.92 23.457 L 55.92 23.457 L 57.161 21.943 L 57.161 21.943 Q 58.858 23.322 60.909 23.322 L 60.909 23.322 L 60.909 23.322 Q 62.226 23.322 62.999 22.741 L 62.999 22.741 L 62.999 22.741 Q 63.771 22.159 63.771 21.159 L 63.771 21.159 L 63.771 21.159 Q 63.771 20.429 63.493 19.982 L 63.493 19.982 L 63.493 19.982 Q 63.214 19.536 62.53 19.198 L 62.53 19.198 L 62.53 19.198 Q 61.846 18.86 60.529 18.482 L 60.529 18.482 L 60.529 18.482 Q 58.402 17.887 57.452 16.886 L 57.452 16.886 L 57.452 16.886 Q 56.502 15.886 56.502 14.345 L 56.502 14.345 L 56.502 14.345 Q 56.502 13.236 57.123 12.33 L 57.123 12.33 L 57.123 12.33 Q 57.743 11.424 58.845 10.924 L 58.845 10.924 L 58.845 10.924 Q 59.947 10.424 61.314 10.424 L 61.314 10.424 L 61.314 10.424 Z  M 69.521 5.016 L 71.851 4.718 L 71.851 24.998 L 69.521 24.998 L 69.521 5.016 Z  M 76.916 10.748 L 79.525 10.748 L 74.612 17.049 L 80.082 24.998 L 77.296 24.998 L 72.003 17.211 L 76.916 10.748 L 76.916 10.748 Z  M 92.417 10.748 L 92.417 24.998 L 90.416 24.998 L 90.239 22.781 L 90.239 22.781 Q 89.479 24.106 88.491 24.714 L 88.491 24.714 L 88.491 24.714 Q 87.504 25.323 86.085 25.323 L 86.085 25.323 L 86.085 25.323 Q 84.338 25.323 83.35 24.187 L 83.35 24.187 L 83.35 24.187 Q 82.362 23.052 82.362 20.969 L 82.362 20.969 L 82.362 10.748 L 84.692 10.748 L 84.692 20.699 L 84.692 20.699 Q 84.692 22.159 85.173 22.768 L 85.173 22.768 L 85.173 22.768 Q 85.655 23.376 86.744 23.376 L 86.744 23.376 L 86.744 23.376 Q 88.694 23.376 90.087 20.915 L 90.087 20.915 L 90.087 10.748 L 92.417 10.748 Z  M 97.229 10.748 L 99.56 10.748 L 99.56 24.998 L 97.229 24.998 L 97.229 10.748 Z  M 98.369 3.907 L 98.369 3.907 Q 99.104 3.907 99.56 4.394 L 99.56 4.394 L 99.56 4.394 Q 100.016 4.881 100.016 5.611 L 100.016 5.611 L 100.016 5.611 Q 100.016 6.341 99.56 6.814 L 99.56 6.814 L 99.56 6.814 Q 99.104 7.287 98.369 7.287 L 98.369 7.287 L 98.369 7.287 Q 97.66 7.287 97.204 6.814 L 97.204 6.814 L 97.204 6.814 Q 96.748 6.341 96.748 5.611 L 96.748 5.611 L 96.748 5.611 Q 96.748 4.881 97.204 4.394 L 97.204 4.394 L 97.204 4.394 Q 97.66 3.907 98.369 3.907 L 98.369 3.907 L 98.369 3.907 Z  M 110.223 22.7 L 111.109 24.349 L 111.109 24.349 Q 109.792 25.323 108.121 25.323 L 108.121 25.323 L 108.121 25.323 Q 106.424 25.323 105.474 24.282 L 105.474 24.282 L 105.474 24.282 Q 104.524 23.241 104.524 21.267 L 104.524 21.267 L 104.524 12.668 L 102.194 12.668 L 102.194 10.748 L 104.524 10.748 L 104.524 7.531 L 106.854 7.233 L 106.854 10.748 L 110.02 10.748 L 109.767 12.668 L 106.854 12.668 L 106.854 21.159 L 106.854 21.159 Q 106.854 22.267 107.221 22.768 L 107.221 22.768 L 107.221 22.768 Q 107.589 23.268 108.45 23.268 L 108.45 23.268 L 108.45 23.268 Q 109.235 23.268 110.223 22.7 L 110.223 22.7 Z " fill="rgb(0,0,0)"/><g><path d=" M 28.336 15.944 C 28.193 21.738 24.122 26.438 18.23 26.438 C 12.23 26.438 7.359 21.616 7.359 15.677 C 7.359 9.739 11.831 4.961 17.831 4.961 C 18.547 4.961 19.243 5.028 19.908 5.165 C 19.838 5.409 19.801 5.667 19.801 5.934 C 19.801 6.885 20.273 7.725 20.997 8.217 C 20.638 8.772 20.435 9.443 20.435 10.165 C 20.435 12.128 21.942 13.721 23.798 13.721 C 24.215 13.721 24.613 13.641 24.977 13.486 C 25.184 15.031 26.545 16.145 28.049 15.986 C 28.146 15.976 28.241 15.96 28.336 15.944 Z " fill-rule="evenodd" fill="none" vector-effect="non-scaling-stroke" stroke-width="2" stroke="rgb(0,0,0)" stroke-linejoin="miter" stroke-linecap="square" stroke-miterlimit="3"/><g><path d=" M 14.679 9.737 C 14.679 10.377 15.179 10.897 15.794 10.897 C 16.409 10.897 16.909 10.377 16.909 9.737 C 16.909 9.096 16.409 8.576 15.794 8.576 C 15.179 8.576 14.679 9.096 14.679 9.737 Z " fill="rgb(0,0,0)"/><path d=" M 10.903 16.104 C 10.903 16.744 11.403 17.264 12.018 17.264 C 12.634 17.264 13.133 16.744 13.133 16.104 C 13.133 15.463 12.634 14.943 12.018 14.943 C 11.403 14.943 10.903 15.463 10.903 16.104 Z " fill="rgb(0,0,0)"/><path d=" M 22.548 19.104 C 22.548 19.744 23.048 20.264 23.663 20.264 C 24.278 20.264 24.778 19.744 24.778 19.104 C 24.778 18.463 24.278 17.943 23.663 17.943 C 23.048 17.943 22.548 18.463 22.548 19.104 Z " fill="rgb(0,0,0)"/><path d=" M 17.51 16.297 C 17.51 15.932 17.796 15.637 18.147 15.637 C 18.499 15.637 18.785 15.932 18.785 16.297 C 18.785 16.661 18.499 16.957 18.147 16.957 C 17.796 16.957 17.51 16.661 17.51 16.297 Z " fill="rgb(0,0,0)"/><path d=" M 14.04 20.849 C 14.04 20.485 14.325 20.189 14.677 20.189 C 15.028 20.189 15.314 20.485 15.314 20.849 C 15.314 21.213 15.028 21.509 14.677 21.509 C 14.325 21.509 14.04 21.213 14.04 20.849 Z " fill="rgb(0,0,0)"/><path d=" M 18.71 23.039 C 18.71 22.675 18.996 22.379 19.348 22.379 C 19.699 22.379 19.985 22.675 19.985 23.039 C 19.985 23.403 19.699 23.699 19.348 23.699 C 18.996 23.699 18.71 23.403 18.71 23.039 Z " fill="rgb(0,0,0)"/></g></g></g></svg>